<svg width="58" height="42" viewBox="0 0 58 42" fill="none" xmlns="http://www.w3.org/2000/svg">
<path d="M9 35.6667H6.33333C3.38781 35.6667 1 33.2789 1 30.3333V6.33333C1 3.38781 3.38781 1 6.33333 1H30.3333C33.2789 1 35.6667 3.38781 35.6667 6.33333V30.3333C35.6667 33.2789 33.2789 35.6667 30.3333 35.6667H27.6667M39.6667 35.6667H38.3333C36.8606 35.6667 35.6667 34.4728 35.6667 33V10.3333C35.6667 8.86057 36.8606 7.66667 38.3333 7.66667H45.0517C45.8618 7.66667 46.6279 8.03491 47.134 8.66748L56.4157 20.2696C56.7939 20.7424 57 21.3299 57 21.9354V33C57 34.4728 55.8061 35.6667 54.3333 35.6667M25 34.3333C25 38.0152 22.0152 41 18.3333 41C14.6514 41 11.6667 38.0152 11.6667 34.3333C11.6667 30.6514 14.6514 27.6667 18.3333 27.6667C22.0152 27.6667 25 30.6514 25 34.3333ZM53 34.3333C53 38.0152 50.0152 41 46.3333 41C42.6514 41 39.6667 38.0152 39.6667 34.3333C39.6667 30.6514 42.6514 27.6667 46.3333 27.6667C50.0152 27.6667 53 30.6514 53 34.3333Z" stroke="#018D48" stroke-width="2" stroke-linecap="round"/>
</svg>
