<svg width="32" height="33" viewBox="0 0 32 33" fill="none" xmlns="http://www.w3.org/2000/svg">
<path d="M25.3999 7.04667C24.1775 5.81191 22.7215 4.8329 21.1168 4.16674C19.5121 3.50059 17.7908 3.16062 16.0533 3.16667C8.77328 3.16667 2.83994 9.10001 2.83994 16.38C2.83994 18.7133 3.45328 20.98 4.59994 22.98L2.73328 29.8333L9.73328 27.9933C11.6666 29.0467 13.8399 29.6067 16.0533 29.6067C23.3333 29.6067 29.2666 23.6733 29.2666 16.3933C29.2666 12.86 27.8933 9.54001 25.3999 7.04667ZM16.0533 27.3667C14.0799 27.3667 12.1466 26.8333 10.4533 25.8333L10.0533 25.5933L5.89328 26.6867L6.99994 22.6333L6.73328 22.22C5.63694 20.4693 5.0548 18.4457 5.05328 16.38C5.05328 10.3267 9.98661 5.39334 16.0399 5.39334C18.9733 5.39334 21.7333 6.54001 23.7999 8.62001C24.8233 9.63863 25.6342 10.8502 26.1858 12.1846C26.7374 13.5189 27.0187 14.9495 27.0133 16.3933C27.0399 22.4467 22.1066 27.3667 16.0533 27.3667ZM22.0799 19.1533C21.7466 18.9933 20.1199 18.1933 19.8266 18.0733C19.5199 17.9667 19.3066 17.9133 19.0799 18.2333C18.8533 18.5667 18.2266 19.3133 18.0399 19.5267C17.8533 19.7533 17.6533 19.78 17.3199 19.6067C16.9866 19.4467 15.9199 19.0867 14.6666 17.9667C13.6799 17.0867 13.0266 16.0067 12.8266 15.6733C12.6399 15.34 12.7999 15.1667 12.9733 14.9933C13.1199 14.8467 13.3066 14.6067 13.4666 14.42C13.6266 14.2333 13.6933 14.0867 13.7999 13.8733C13.9066 13.6467 13.8533 13.46 13.7733 13.3C13.6933 13.14 13.0266 11.5133 12.7599 10.8467C12.4933 10.2067 12.2133 10.2867 12.0133 10.2733H11.3733C11.1466 10.2733 10.7999 10.3533 10.4933 10.6867C10.1999 11.02 9.34661 11.82 9.34661 13.4467C9.34661 15.0733 10.5333 16.6467 10.6933 16.86C10.8533 17.0867 13.0266 20.42 16.3333 21.8467C17.1199 22.1933 17.7333 22.3933 18.2133 22.54C18.9999 22.7933 19.7199 22.7533 20.2933 22.6733C20.9333 22.58 22.2533 21.8733 22.5199 21.1C22.7999 20.3267 22.7999 19.6733 22.7066 19.5267C22.6133 19.38 22.4133 19.3133 22.0799 19.1533Z" fill="#25D366"/>
</svg>
