<svg width="32" height="33" viewBox="0 0 32 33" fill="none" xmlns="http://www.w3.org/2000/svg">
<path d="M26.07 4.49601C25.749 4.51937 25.4339 4.59468 25.137 4.71901H25.133C24.848 4.83201 23.493 5.40201 21.433 6.26601L14.051 9.37501C8.754 11.605 3.547 13.801 3.547 13.801L3.609 13.777C3.609 13.777 3.25 13.895 2.875 14.152C2.64332 14.2994 2.44397 14.4923 2.289 14.719C2.105 14.989 1.957 15.402 2.012 15.829C2.102 16.551 2.57 16.984 2.906 17.223C3.246 17.465 3.57 17.578 3.57 17.578H3.578L8.461 19.223C8.68 19.926 9.949 24.098 10.254 25.059C10.434 25.633 10.609 25.992 10.828 26.266C10.934 26.406 11.058 26.523 11.207 26.617C11.2845 26.6621 11.367 26.6977 11.453 26.723L11.403 26.711C11.418 26.715 11.43 26.727 11.441 26.731C11.481 26.742 11.508 26.746 11.559 26.754C12.332 26.988 12.953 26.508 12.953 26.508L12.988 26.48L15.871 23.855L20.703 27.562L20.813 27.609C21.82 28.051 22.84 27.805 23.379 27.371C23.922 26.934 24.133 26.375 24.133 26.375L24.168 26.285L27.902 7.15601C28.008 6.68401 28.035 6.24201 27.918 5.81301C27.7973 5.37884 27.5188 5.00542 27.137 4.76601C26.8164 4.57113 26.4447 4.47706 26.07 4.49601ZM25.969 6.54601C25.965 6.60901 25.977 6.60201 25.949 6.72301V6.73401L22.25 25.664C22.234 25.691 22.207 25.75 22.133 25.809C22.055 25.871 21.993 25.91 21.668 25.781L15.758 21.25L12.188 24.504L12.938 19.714L22.594 10.714C22.992 10.344 22.859 10.266 22.859 10.266C22.887 9.81201 22.258 10.133 22.258 10.133L10.082 17.676L10.078 17.656L4.242 15.691V15.687L4.227 15.684C4.23723 15.6806 4.24725 15.6766 4.257 15.672L4.289 15.656L4.32 15.645C4.32 15.645 9.531 13.449 14.828 11.219C17.48 10.102 20.152 8.97701 22.207 8.10901C23.4257 7.59602 24.6457 7.08601 25.867 6.57901C25.949 6.54701 25.91 6.54601 25.969 6.54601Z" fill="#27A7E7"/>
</svg>
