<svg width="60" height="24" viewBox="0 0 60 24" fill="none" xmlns="http://www.w3.org/2000/svg">
<path d="M6.83189 24.0005C7.41851 21.7877 8.00327 19.5767 8.59548 17.3453C8.33476 17.4695 8.0908 17.577 7.84311 17.6715C6.91197 18.0236 5.95103 18.2219 4.95098 18.1979C3.89878 18.1719 2.91177 17.9162 2.03463 17.3194C1.01969 16.63 0.401407 15.6718 0.133237 14.4857C-0.0827883 13.5257 -0.0250573 12.5694 0.228214 11.6243C0.667714 9.98597 1.56534 8.62196 2.80003 7.47292C3.90623 6.4425 5.18004 5.70119 6.6438 5.29717C7.70903 5.00435 8.78729 4.92466 9.87487 5.15632C11.022 5.40096 11.9867 5.95138 12.7111 6.88358C13.2717 7.60636 13.5696 8.43663 13.6646 9.33917C13.754 10.1843 13.6386 11.0071 13.4151 11.8207C13.1134 12.9234 12.8229 14.0298 12.5286 15.1344C11.8936 17.5288 11.2753 19.9288 10.6179 22.3177C10.3591 23.2573 9.6905 23.8077 8.72397 23.9838C8.7128 23.9856 8.70349 23.9931 8.69232 23.9986C8.07404 24.0005 7.45203 24.0005 6.83189 24.0005ZM3.48349 12.4657C3.48722 12.5287 3.48722 12.6287 3.50026 12.727C3.61758 13.7036 4.12598 14.3801 5.06458 14.7155C5.58602 14.9009 6.12608 14.912 6.66242 14.7989C7.95485 14.5247 8.93628 13.8037 9.64022 12.7029C10.0481 12.0635 10.2659 11.363 10.2213 10.5957C10.1617 9.58937 9.52476 8.78319 8.55823 8.49779C8.02748 8.34026 7.49114 8.34026 6.95666 8.46443C5.7797 8.73871 4.86159 9.39848 4.17813 10.3807C3.7498 10.9942 3.50026 11.6743 3.48349 12.4657Z" fill="black" fill-opacity="0.7"/>
<path d="M43.463 0.00185339C43.1688 1.11011 42.8764 2.21837 42.5821 3.32477C42.5561 3.34516 42.5281 3.33589 42.5002 3.33589C41.9639 3.33589 41.4257 3.3396 40.8894 3.33589C40.5113 3.33404 40.1724 3.22099 39.9154 2.93188C39.6026 2.58161 39.5467 2.16462 39.6547 1.7254C39.7981 1.14903 39.9582 0.574515 40.111 0C41.2283 0 42.3456 1.13087e-07 43.463 0.00185339Z" fill="black" fill-opacity="0.7"/>
<path d="M60.0001 5.07816C59.9275 5.2709 59.8865 5.47291 59.8344 5.67306C59.6984 6.1753 59.568 6.6794 59.4358 7.18349C59.4247 7.22611 59.4079 7.25021 59.3557 7.24835C58.6462 7.2465 57.9348 7.2465 57.2253 7.2465C57.2141 7.2465 57.2029 7.24279 57.1843 7.24094C57.3799 6.50148 57.5754 5.76758 57.7709 5.02441C58.514 5.02441 59.257 5.02441 60.0001 5.02441C60.0001 5.04109 60.0001 5.05963 60.0001 5.07816Z" fill="black" fill-opacity="0.7"/>
<path d="M19.2703 18.201C18.6092 18.1973 17.7153 18.0231 16.8903 17.5746C15.5756 16.8611 14.8046 15.7529 14.5271 14.298C14.3558 13.3992 14.4228 12.5078 14.6593 11.6275C15.0877 10.0336 15.9499 8.69743 17.1362 7.56137C18.179 6.5643 19.3821 5.82855 20.762 5.38747C21.5628 5.13172 22.3841 4.99828 23.2258 5.02608C24.3171 5.06129 25.3339 5.34299 26.2259 5.99164C27.2334 6.72554 27.8201 7.72631 28.0398 8.94206C28.2428 10.0614 28.0957 11.1512 27.712 12.2131C27.1552 13.7569 26.2073 15.0282 24.9559 16.0809C23.8906 16.976 22.6895 17.6191 21.3356 17.9675C20.7378 18.1232 20.127 18.1992 19.2703 18.201ZM17.9165 12.4633C17.9202 12.5263 17.9202 12.6264 17.9332 12.7246C18.0505 13.7013 18.5571 14.3796 19.4938 14.7132C20.0152 14.9004 20.5553 14.9115 21.0916 14.7984C22.3878 14.5241 23.3711 13.8014 24.075 12.6968C24.481 12.0593 24.697 11.3606 24.6523 10.597C24.5927 9.59071 23.9577 8.78453 22.9912 8.49727C22.4604 8.33975 21.9241 8.33975 21.3896 8.46392C20.2126 8.7382 19.2945 9.39797 18.6092 10.3784C18.1828 10.9918 17.9332 11.6719 17.9165 12.4633Z" fill="black" fill-opacity="0.7"/>
<path d="M39.8557 18.201C39.8464 18.1417 39.8892 18.1213 39.9153 18.0953C41.5131 16.5238 43.1109 14.9522 44.7088 13.3825C45.288 12.8135 45.8653 12.2445 46.4444 11.6774C46.491 11.6311 46.5022 11.5977 46.4705 11.5347C45.4276 9.3979 44.3866 7.25922 43.3437 5.12053C43.3307 5.09273 43.3195 5.06493 43.3084 5.04084C43.3233 5.0186 43.34 5.02416 43.3549 5.02416C43.9322 5.02416 44.5095 5.0186 45.0868 5.02601C45.625 5.03343 46.1279 5.17428 46.5729 5.48748C46.8933 5.71358 47.1409 6.00269 47.3067 6.35667C47.7276 7.25736 48.1745 8.14694 48.6066 9.04207C48.6606 9.15327 48.7146 9.26261 48.7853 9.40717C49.0125 9.16995 49.223 8.94385 49.4409 8.72701C50.2081 7.96717 50.9847 7.21659 51.7464 6.44933C52.3852 5.8081 53.1208 5.34293 54.0053 5.12424C54.2679 5.05937 54.5342 5.02231 54.8061 5.02231C55.3648 5.02045 55.9235 5.02231 56.4822 5.02231C56.5008 5.02231 56.5176 5.02231 56.5492 5.02231C56.3872 5.1854 56.2364 5.33737 56.0837 5.48748C54.0277 7.50756 51.9736 9.52763 49.9176 11.5477C49.8711 11.594 49.8636 11.6292 49.8934 11.6904C50.9307 13.8161 51.9661 15.9455 53.0034 18.0731C53.0221 18.1102 53.0537 18.1454 53.0239 18.1973C53.0053 18.1991 52.9829 18.201 52.9625 18.201C52.4038 18.201 51.8451 18.2102 51.2864 18.1991C50.5694 18.1843 49.9362 17.9563 49.4353 17.4245C49.2621 17.241 49.1336 17.026 49.0256 16.7999C48.5563 15.8251 48.0833 14.854 47.6121 13.881C47.6084 13.8736 47.6009 13.8662 47.5953 13.8569C47.5637 13.8587 47.5506 13.8847 47.532 13.9032C46.5897 14.8299 45.6399 15.7491 44.7069 16.685C44.2842 17.1094 43.8317 17.4856 43.2935 17.7562C42.6975 18.0546 42.0681 18.214 41.3976 18.2047C40.8837 18.1936 40.3715 18.201 39.8557 18.201Z" fill="black" fill-opacity="0.7"/>
<path d="M27.3693 18.1972C27.4382 17.9359 27.5033 17.6839 27.5704 17.43C27.751 16.748 27.9335 16.066 28.1142 15.384C28.2967 14.6964 28.4773 14.007 28.6598 13.3194C28.9708 12.1426 29.2837 10.9658 29.5966 9.78892C29.7306 9.28297 29.8554 8.77332 30.0025 8.27108C30.2335 7.48529 30.6804 6.82738 31.2819 6.2751C31.9225 5.68576 32.6637 5.28174 33.526 5.11124C33.6973 5.07788 33.8686 5.05564 34.0418 5.04823C35.2039 5.00005 36.366 5.03897 37.5299 5.02785C37.5355 5.02785 37.5411 5.0297 37.5615 5.03526C37.2673 6.14167 36.9749 7.24807 36.6825 8.35263C36.649 8.37116 36.6136 8.3619 36.582 8.3619C36.0922 8.3619 35.6006 8.3619 35.1108 8.3619C34.1759 8.3656 33.5167 8.82151 33.0567 9.60174C32.9096 9.85008 32.8593 10.1318 32.7866 10.4061C32.4794 11.5588 32.1721 12.7115 31.8667 13.8643C31.5389 15.1041 31.2112 16.344 30.8853 17.5838C30.8312 17.7895 30.7754 17.9934 30.7195 18.1991C29.604 18.1972 28.4941 18.1972 27.3693 18.1972Z" fill="black" fill-opacity="0.7"/>
<path d="M38.7814 5.02596C39.381 5.02596 39.9714 5.00928 40.5617 5.02966C41.3346 5.05561 41.8486 5.68943 41.7368 6.45113C41.6828 6.82735 41.5599 7.18873 41.4631 7.55383C40.6548 10.6099 39.8429 13.6659 39.0328 16.722C38.908 17.189 38.7851 17.6579 38.6603 18.1249C38.6547 18.149 38.6454 18.1713 38.6398 18.1954C37.5224 18.1954 36.4088 18.1954 35.2896 18.1954C36.4535 13.8049 37.6156 9.41823 38.7814 5.02596Z" fill="black" fill-opacity="0.7"/>
</svg>
