<svg width="18" height="20" viewBox="0 0 18 20" fill="none" xmlns="http://www.w3.org/2000/svg">
<path d="M2.25 7C2.25006 6.17163 2.92161 5.5 3.75 5.5H10.5C11.3284 5.5 11.9999 6.17163 12 7V16.75C12 17.5784 11.3284 18.25 10.5 18.25H3.75C2.92157 18.25 2.25 17.5784 2.25 16.75V7ZM17.25 11.125V6C17.25 2.82439 14.6756 0.25 11.5 0.25H6.375C5.96083 0.250005 5.62506 0.585844 5.625 1C5.625 1.41421 5.96079 1.75 6.375 1.75H11.5C13.8472 1.75 15.75 3.65281 15.75 6V11.125C15.75 11.5392 16.0858 11.875 16.5 11.875C16.9142 11.875 17.25 11.5392 17.25 11.125ZM0.75 16.75C0.75 18.4069 2.09315 19.75 3.75 19.75H10.5C12.1569 19.75 13.5 18.4069 13.5 16.75V7C13.4999 5.3432 12.1568 4 10.5 4H3.75C2.09318 4 0.750063 5.3432 0.75 7V16.75Z" fill="white"/>
</svg>
