<svg width="18" height="20" viewBox="0 0 18 20" fill="none" xmlns="http://www.w3.org/2000/svg">
<path d="M0 16.8926V13.2041C0.000157154 12.79 0.335883 12.4541 0.75 12.4541C1.16412 12.4541 1.49984 12.79 1.5 13.2041V16.8926C1.50002 17.2648 1.64087 17.6143 1.87988 17.8662C2.1177 18.1168 2.43153 18.25 2.75 18.25H14.75C15.0685 18.25 15.3823 18.1168 15.6201 17.8662C15.8591 17.6143 16 17.2648 16 16.8926V13.2041C16.0002 12.79 16.3359 12.4541 16.75 12.4541C17.1641 12.4541 17.4998 12.79 17.5 13.2041V16.8926C17.5 17.6381 17.2191 18.3609 16.708 18.8994C16.1957 19.4391 15.4922 19.75 14.75 19.75H2.75C2.00776 19.75 1.3043 19.4391 0.791992 18.8994C0.280942 18.3609 1.81914e-05 17.6381 0 16.8926ZM8.00098 1C8.00098 0.585833 8.33683 0.250075 8.75098 0.25C9.16519 0.25 9.50098 0.585786 9.50098 1V11.1348L12.793 7.84863C13.0861 7.55607 13.5609 7.55647 13.8535 7.84961C14.146 8.14276 14.1456 8.61758 13.8525 8.91016L9.28125 13.4736C8.98859 13.7657 8.51448 13.7655 8.22168 13.4736L3.64941 8.91016C3.35654 8.61761 3.35617 8.14273 3.64844 7.84961C3.94107 7.55645 4.4168 7.556 4.70996 7.84863L8.00098 11.1338V1Z" fill="white"/>
</svg>
