<svg width="32" height="44" viewBox="0 0 32 44" fill="none" xmlns="http://www.w3.org/2000/svg">
<path fill-rule="evenodd" clip-rule="evenodd" d="M9.65189 5.35852L11.6006 7.30032L10.1889 8.71705L5.81484 4.35852L10.1889 0L11.6006 1.41673L9.65189 3.35852H25.048V5.35852H9.65189ZM24.1222 10.4141C23.5046 9.79865 22.5017 9.79865 21.884 10.4141L6.72775 25.5165L4.37029 13.6853C4.28483 13.2941 4.0144 12.9663 3.642 12.8073L3.55944 12.7721C3.13785 12.592 2.6492 12.6864 2.32616 13.0082C2.11253 13.2211 1.99532 13.5104 2.00014 13.8099L2.25514 29.6482C2.30508 32.7499 3.51059 35.723 5.6383 37.9893L6.62424 39.0395C7.93929 40.4403 9.69543 41.3522 11.6024 41.6237C12.5798 41.7628 13.5741 41.7303 14.5403 41.5276C14.5402 41.5276 14.5403 41.5276 14.5403 41.5276L14.6284 41.5092C16.2487 41.1693 17.7425 40.389 18.9443 39.2553L25.7214 32.8624L25.8883 32.6961C26.504 32.0826 26.504 31.0894 25.8883 30.4759C25.2707 29.8605 24.2678 29.8605 23.6501 30.4759L23.4735 30.6519L22.0618 29.2352L24.1222 27.1821C24.7379 26.5686 24.7379 25.5754 24.1222 24.9619C23.5046 24.3464 22.5017 24.3464 21.884 24.9619L19.8236 27.015L18.4119 25.5982L29.5382 14.5114C30.1539 13.8979 30.1539 12.9047 29.5382 12.2912C28.9206 11.6758 27.9177 11.6758 27.3 12.2912L16.1737 23.378L14.762 21.9613L24.1222 12.6343C24.7379 12.0208 24.7379 11.0276 24.1222 10.4141ZM26.4158 10.4401C26.2478 9.91231 25.9538 9.41579 25.5339 8.99738C24.1358 7.60423 21.8704 7.60422 20.4723 8.99738L7.95985 21.4654L6.33019 13.2868L6.32743 13.2734C6.10709 12.2415 5.39771 11.3823 4.42746 10.968L4.34491 10.9328C3.17451 10.4329 1.81617 10.693 0.914472 11.5915C0.317083 12.1868 -0.0131734 12.9988 0.00040262 13.8421L0.255398 29.6804C0.31336 33.2805 1.71259 36.7299 4.18019 39.3583L5.16613 40.4084C6.79302 42.1413 8.96431 43.2683 11.3205 43.6037C12.5283 43.7756 13.757 43.7355 14.9509 43.485L15.039 43.4665C15.039 43.4665 15.039 43.4665 15.039 43.4665C17.0195 43.0511 18.8463 42.0972 20.3167 40.7102L27.1137 34.2985L27.3 34.1129C28.7001 32.7177 28.7001 30.4543 27.3 29.0592C26.8889 28.6496 26.4028 28.3604 25.8859 28.1916C26.9221 26.7932 26.8048 24.8115 25.5339 23.5451C25.1341 23.1467 24.6634 22.8623 24.1623 22.6917L30.9499 15.9282C32.35 14.5331 32.35 12.2696 30.9499 10.8745C29.7165 9.64551 27.8083 9.5007 26.4158 10.4401Z" fill="#94BDEA"/>
</svg>
