<svg width="59" height="42" viewBox="0 0 59 42" fill="none" xmlns="http://www.w3.org/2000/svg">
<path d="M9.66699 35.6667H7.00033C4.05481 35.6667 1.66699 33.2789 1.66699 30.3333V6.33333C1.66699 3.38781 4.05481 1 7.00033 1H31.0003C33.9458 1 36.3337 3.38781 36.3337 6.33333V30.3333C36.3337 33.2789 33.9458 35.6667 31.0003 35.6667H28.3337M40.3337 35.6667H39.0003C37.5276 35.6667 36.3337 34.4728 36.3337 33V10.3333C36.3337 8.86057 37.5276 7.66667 39.0003 7.66667H45.7187C46.5287 7.66667 47.2949 8.03491 47.801 8.66748L57.0826 20.2696C57.4609 20.7424 57.667 21.3299 57.667 21.9354V33C57.667 34.4728 56.4731 35.6667 55.0003 35.6667M25.667 34.3333C25.667 38.0152 22.6822 41 19.0003 41C15.3184 41 12.3337 38.0152 12.3337 34.3333C12.3337 30.6514 15.3184 27.6667 19.0003 27.6667C22.6822 27.6667 25.667 30.6514 25.667 34.3333ZM53.667 34.3333C53.667 38.0152 50.6822 41 47.0003 41C43.3184 41 40.3337 38.0152 40.3337 34.3333C40.3337 30.6514 43.3184 27.6667 47.0003 27.6667C50.6822 27.6667 53.667 30.6514 53.667 34.3333Z" stroke="#018D48" stroke-width="2" stroke-linecap="round"/>
</svg>
